<svg width="24" height="24" viewBox="0 0 24 24" fill="none" xmlns="http://www.w3.org/2000/svg">
<g clip-path="url(#clip0_2371_43703)">
<path d="M12.6 4.69919C12.522 4.70004 12.4447 4.68552 12.3723 4.65647C12.3 4.62741 12.2341 4.58439 12.1784 4.52987C12.1227 4.47534 12.0782 4.41037 12.0476 4.33867C12.017 4.26697 12.0008 4.18995 12 4.11199C12 1.83999 13.8816 -6.71714e-06 16.1984 -6.71714e-06C16.2764 -0.00106352 16.3539 0.0133099 16.4263 0.0422872C16.4987 0.0712644 16.5647 0.114274 16.6205 0.168843C16.6762 0.223412 16.7207 0.288464 16.7512 0.36026C16.7817 0.432055 16.7978 0.509178 16.7984 0.587193C16.7984 2.85919 14.9184 4.69919 12.6 4.69919Z" fill="#0B0B0B"/>
<path d="M12.6 4.69919C12.5221 4.70004 12.4447 4.68552 12.3724 4.65647C12.3 4.62741 12.2341 4.58439 12.1784 4.52987C12.1227 4.47534 12.0783 4.41037 12.0476 4.33867C12.017 4.26697 12.0009 4.18995 12 4.11199C12 1.83999 13.8816 -6.71714e-06 16.1984 -6.71714e-06C16.2764 -0.00106352 16.3539 0.0133099 16.4263 0.0422872C16.4988 0.0712644 16.5648 0.114274 16.6205 0.168843C16.6763 0.223412 16.7207 0.288464 16.7512 0.36026C16.7818 0.432055 16.7978 0.509178 16.7984 0.587193C16.7984 2.85919 14.9184 4.69919 12.6 4.69919ZM21.36 17.0688C21.592 17.2384 21.6672 17.5488 21.536 17.8016C19.424 21.9392 17.7392 24 16.2 24C15.4832 24 14.7792 23.7728 14.0928 23.3312C13.6002 23.0149 13.0297 22.8409 12.4443 22.8285C11.859 22.8161 11.2817 22.9657 10.776 23.2608C9.94402 23.7488 9.15202 24 8.40002 24C6.13602 24 2.40002 17.1728 2.40002 13.4272C2.40002 9.42719 4.54242 6.37759 7.80002 6.37759C9.33282 6.37759 10.656 6.59839 11.768 7.04799C12.2384 7.23679 12.7712 7.22399 13.2304 7.00799C14.1328 6.58239 15.3232 6.37759 16.7984 6.37759C18.6016 6.37759 20.1744 7.25759 21.48 8.96159C21.5273 9.02304 21.5617 9.09334 21.5812 9.16833C21.6008 9.24332 21.6051 9.32148 21.5939 9.39817C21.5827 9.47485 21.5563 9.54852 21.5161 9.61479C21.4759 9.68106 21.4228 9.7386 21.36 9.78399C19.9024 10.856 19.2 12.0576 19.2 13.4272C19.2 14.7952 19.9024 15.9984 21.36 17.0688Z" fill="#0B0B0B"/>
<path d="M21.36 17.0688C21.592 17.2384 21.6672 17.5488 21.536 17.8016C19.424 21.9392 17.7392 24 16.2 24C15.4832 24 14.7792 23.7728 14.0928 23.3312C13.6002 23.0149 13.0297 22.8409 12.4443 22.8285C11.859 22.8161 11.2817 22.9657 10.776 23.2608C9.94402 23.7488 9.15202 24 8.40002 24C6.13602 24 2.40002 17.1728 2.40002 13.4272C2.40002 9.42719 4.54242 6.37759 7.80002 6.37759C9.33282 6.37759 10.656 6.59839 11.768 7.04799C12.2384 7.23679 12.7712 7.22399 13.2304 7.00799C14.1328 6.58239 15.3232 6.37759 16.7984 6.37759C18.6016 6.37759 20.1744 7.25759 21.48 8.96159C21.5273 9.02304 21.5617 9.09334 21.5812 9.16833C21.6008 9.24333 21.6051 9.32148 21.5939 9.39817C21.5827 9.47485 21.5563 9.54852 21.5161 9.61479C21.4759 9.68106 21.4228 9.7386 21.36 9.78399C19.9024 10.856 19.2 12.0576 19.2 13.4272C19.2 14.7952 19.9024 15.9984 21.36 17.0688Z" fill="#0B0B0B"/>
</g>
<defs>
<clipPath id="clip0_2371_43703">
<rect width="24" height="24" fill="white"/>
</clipPath>
</defs>
</svg>
