<svg width="24" height="24" viewBox="0 0 24 24" fill="none" xmlns="http://www.w3.org/2000/svg">
<g id="bi:filter">
<path id="Vector" d="M9.00018 15.75C9.00018 15.5511 9.0792 15.3603 9.21985 15.2197C9.36051 15.079 9.55127 15 9.75018 15H14.2502C14.4491 15 14.6399 15.079 14.7805 15.2197C14.9212 15.3603 15.0002 15.5511 15.0002 15.75C15.0002 15.9489 14.9212 16.1397 14.7805 16.2803C14.6399 16.421 14.4491 16.5 14.2502 16.5H9.75018C9.55127 16.5 9.36051 16.421 9.21985 16.2803C9.0792 16.1397 9.00018 15.9489 9.00018 15.75ZM6.00018 11.25C6.00018 11.0511 6.0792 10.8603 6.21985 10.7197C6.36051 10.579 6.55127 10.5 6.75018 10.5H17.2502C17.4491 10.5 17.6399 10.579 17.7805 10.7197C17.9212 10.8603 18.0002 11.0511 18.0002 11.25C18.0002 11.4489 17.9212 11.6397 17.7805 11.7803C17.6399 11.921 17.4491 12 17.2502 12H6.75018C6.55127 12 6.36051 11.921 6.21985 11.7803C6.0792 11.6397 6.00018 11.4489 6.00018 11.25ZM3.00018 6.75C3.00018 6.55109 3.0792 6.36032 3.21985 6.21967C3.36051 6.07902 3.55127 6 3.75018 6H20.2502C20.4491 6 20.6399 6.07902 20.7805 6.21967C20.9212 6.36032 21.0002 6.55109 21.0002 6.75C21.0002 6.94891 20.9212 7.13968 20.7805 7.28033C20.6399 7.42098 20.4491 7.5 20.2502 7.5H3.75018C3.55127 7.5 3.36051 7.42098 3.21985 7.28033C3.0792 7.13968 3.00018 6.94891 3.00018 6.75Z" fill="#464646"/>
</g>
</svg>
