<svg width="22" height="20" viewBox="0 0 22 20" fill="none" xmlns="http://www.w3.org/2000/svg">
<g id="vuesax/linear/eye">
<g id="eye">
<path id="Vector (Stroke)" fill-rule="evenodd" clip-rule="evenodd" d="M11 7.17041C9.4342 7.17041 8.16998 8.43462 8.16998 10.0004C8.16998 11.5662 9.4342 12.8304 11 12.8304C12.5658 12.8304 13.83 11.5662 13.83 10.0004C13.83 8.43462 12.5658 7.17041 11 7.17041ZM6.66998 10.0004C6.66998 7.6062 8.60577 5.67041 11 5.67041C13.3942 5.67041 15.33 7.6062 15.33 10.0004C15.33 12.3946 13.3942 14.3304 11 14.3304C8.60577 14.3304 6.66998 12.3946 6.66998 10.0004Z" fill="#8D8D8D"/>
<path id="Vector (Stroke)_2" fill-rule="evenodd" clip-rule="evenodd" d="M1.25749 6.99718C3.64841 3.23882 7.15202 0.970215 11 0.970215C14.8481 0.970215 18.3519 3.23901 20.7428 6.99767C21.2878 7.85201 21.535 8.94637 21.535 9.99521C21.535 11.0441 21.2878 12.1384 20.7428 12.9928C18.3519 16.7514 14.8481 19.0202 11 19.0202C7.15185 19.0202 3.6481 16.7514 1.25718 12.9928C0.712201 12.1384 0.464996 11.0441 0.464996 9.99521C0.464996 8.94617 0.712295 7.85159 1.25749 6.99718ZM11 2.47021C7.78814 2.47021 4.71189 4.36142 2.52281 7.80276L2.52219 7.80374C2.1676 8.35926 1.965 9.15446 1.965 9.99521C1.965 10.836 2.1676 11.6312 2.52219 12.1867L2.52282 12.1877C4.71189 15.629 7.78814 17.5202 11 17.5202C14.2118 17.5202 17.2881 15.629 19.4772 12.1877L19.4778 12.1867C19.8324 11.6312 20.035 10.836 20.035 9.99521C20.035 9.15446 19.8324 8.35926 19.4778 7.80374L19.4772 7.80276C17.2881 4.36142 14.2118 2.47021 11 2.47021Z" fill="#8D8D8D"/>
</g>
</g>
</svg>
