<svg width="16" height="16" viewBox="0 0 16 16" fill="none" xmlns="http://www.w3.org/2000/svg">
<g id="fluent:comment-20-regular">
<path id="Vector" d="M8.38403 11.0735H12.32C13.0368 11.0735 13.6 10.5031 13.6 9.8207V4.4527C13.6 3.7703 13.0368 3.1999 12.32 3.1999H3.68003C2.96323 3.1999 2.40003 3.7703 2.40003 4.4527V9.8207C2.40003 10.5031 2.96323 11.0735 3.68003 11.0735H4.96003V13.5999H4.96243L4.96403 13.5991L8.38483 11.0735H8.38403ZM5.44003 14.2423C5.26973 14.3678 5.05694 14.4215 4.84748 14.3917C4.63801 14.3619 4.44861 14.2511 4.32003 14.0831C4.21696 13.9473 4.16106 13.7816 4.16083 13.6111V11.8735H3.68083C2.53203 11.8735 1.60083 10.9543 1.60083 9.8207V4.4527C1.60003 3.3191 2.53123 2.3999 3.68003 2.3999H12.32C13.4688 2.3999 14.4 3.3191 14.4 4.4527V9.8207C14.4 10.9551 13.4688 11.8735 12.32 11.8735H8.64803L5.43923 14.2423H5.44003Z" fill="#0B0B0B"/>
</g>
</svg>
