<svg width="24" height="24" viewBox="0 0 24 24" fill="none" xmlns="http://www.w3.org/2000/svg">
<g id="gg:close-r">
<g id="Group">
<path id="Vector" d="M15.5967 8.52766C15.6728 8.60365 15.7331 8.69388 15.7743 8.79321C15.8155 8.89253 15.8366 8.999 15.8366 9.10652C15.8366 9.21405 15.8155 9.32051 15.7743 9.41984C15.7331 9.51916 15.6728 9.6094 15.5967 9.68539L13.1569 12.1244L15.3463 14.313C15.4998 14.4665 15.5861 14.6748 15.5861 14.8919C15.5861 15.109 15.4998 15.3172 15.3463 15.4708C15.1928 15.6243 14.9846 15.7105 14.7675 15.7105C14.5503 15.7105 14.3421 15.6243 14.1886 15.4708L12 13.2813L9.81132 15.4708C9.65779 15.6243 9.44957 15.7105 9.23246 15.7105C9.01534 15.7105 8.80712 15.6243 8.65359 15.4708C8.50007 15.3172 8.41382 15.109 8.41382 14.8919C8.41382 14.6748 8.50007 14.4665 8.65359 14.313L10.843 12.1244L8.40323 9.68539C8.32721 9.60932 8.26692 9.51902 8.2258 9.41965C8.18468 9.32028 8.16354 9.21378 8.16357 9.10623C8.16361 8.99869 8.18483 8.89221 8.22602 8.79287C8.26721 8.69352 8.32757 8.60327 8.40364 8.52725C8.47971 8.45123 8.57001 8.39094 8.66938 8.34982C8.76875 8.3087 8.87525 8.28756 8.98279 8.2876C9.09033 8.28764 9.19681 8.30886 9.29616 8.35005C9.3955 8.39124 9.48576 8.45159 9.56177 8.52766L12 10.9683L14.439 8.52848C14.5149 8.45241 14.6052 8.39206 14.7045 8.35088C14.8038 8.30971 14.9103 8.28852 15.0178 8.28852C15.1253 8.28852 15.2318 8.30971 15.3311 8.35088C15.4305 8.39206 15.5207 8.45159 15.5967 8.52766Z" fill="#0B0B0B"/>
<path id="Vector_2" fill-rule="evenodd" clip-rule="evenodd" d="M5.45455 3C4.80356 3 4.17924 3.2586 3.71892 3.71892C3.2586 4.17924 3 4.80356 3 5.45455V18.5455C3 19.1964 3.2586 19.8208 3.71892 20.2811C4.17924 20.7414 4.80356 21 5.45455 21H18.5455C19.1964 21 19.8208 20.7414 20.2811 20.2811C20.7414 19.8208 21 19.1964 21 18.5455V5.45455C21 4.80356 20.7414 4.17924 20.2811 3.71892C19.8208 3.2586 19.1964 3 18.5455 3H5.45455ZM18.5455 4.63636H5.45455C5.23755 4.63636 5.02944 4.72256 4.876 4.876C4.72256 5.02944 4.63636 5.23755 4.63636 5.45455V18.5455C4.63636 18.7625 4.72256 18.9706 4.876 19.124C5.02944 19.2774 5.23755 19.3636 5.45455 19.3636H18.5455C18.7625 19.3636 18.9706 19.2774 19.124 19.124C19.2774 18.9706 19.3636 18.7625 19.3636 18.5455V5.45455C19.3636 5.23755 19.2774 5.02944 19.124 4.876C18.9706 4.72256 18.7625 4.63636 18.5455 4.63636Z" fill="#0B0B0B"/>
</g>
</g>
</svg>
