<svg width="24" height="24" viewBox="0 0 24 24" fill="none" xmlns="http://www.w3.org/2000/svg">
<g id="humbleicons:logout">
<path id="Vector" d="M19.9999 12H10.4999M17.9999 15L20.9999 12L17.9999 9M12.9999 7V6C12.9999 5.46957 12.7892 4.96086 12.4142 4.58579C12.0391 4.21071 11.5304 4 10.9999 4H5.99994C5.46951 4 4.9608 4.21071 4.58573 4.58579C4.21065 4.96086 3.99994 5.46957 3.99994 6V18C3.99994 18.5304 4.21065 19.0391 4.58573 19.4142C4.9608 19.7893 5.46951 20 5.99994 20H10.9999C11.5304 20 12.0391 19.7893 12.4142 19.4142C12.7892 19.0391 12.9999 18.5304 12.9999 18V17" stroke="#D85B6B" stroke-width="2" stroke-linecap="round" stroke-linejoin="round"/>
</g>
</svg>
