<svg width="24" height="24" viewBox="0 0 24 24" fill="none" xmlns="http://www.w3.org/2000/svg">
<g id="iconamoon:close-fill">
<path id="Vector" fill-rule="evenodd" clip-rule="evenodd" d="M6.79303 6.79259C6.98056 6.60512 7.23487 6.49981 7.50003 6.49981C7.76519 6.49981 8.0195 6.60512 8.20703 6.79259L12 10.5856L15.793 6.79259C15.8853 6.69708 15.9956 6.6209 16.1176 6.56849C16.2396 6.51608 16.3709 6.4885 16.5036 6.48734C16.6364 6.48619 16.7681 6.51149 16.891 6.56177C17.0139 6.61205 17.1255 6.68631 17.2194 6.7802C17.3133 6.87409 17.3876 6.98574 17.4379 7.10864C17.4881 7.23154 17.5134 7.36321 17.5123 7.49599C17.5111 7.62877 17.4835 7.75999 17.4311 7.882C17.3787 8.004 17.3025 8.11435 17.207 8.20659L13.414 11.9996L17.207 15.7926C17.3892 15.9812 17.49 16.2338 17.4877 16.496C17.4854 16.7582 17.3803 17.009 17.1948 17.1944C17.0094 17.3798 16.7586 17.485 16.4964 17.4873C16.2342 17.4895 15.9816 17.3888 15.793 17.2066L12 13.4136L8.20703 17.2066C8.01843 17.3888 7.76583 17.4895 7.50363 17.4873C7.24143 17.485 6.99062 17.3798 6.80521 17.1944C6.6198 17.009 6.51463 16.7582 6.51236 16.496C6.51008 16.2338 6.61087 15.9812 6.79303 15.7926L10.586 11.9996L6.79303 8.20659C6.60556 8.01907 6.50024 7.76476 6.50024 7.49959C6.50024 7.23443 6.60556 6.98012 6.79303 6.79259Z" fill="black"/>
</g>
</svg>
