<svg width="24" height="24" viewBox="0 0 24 24" fill="none" xmlns="http://www.w3.org/2000/svg">
<g id="iconoir:language">
<g id="Group">
<path id="Vector" d="M2 12C2 17.523 6.477 22 12 22C17.523 22 22 17.523 22 12C22 6.477 17.523 2 12 2C6.477 2 2 6.477 2 12Z" stroke="#232323" stroke-width="1.5" stroke-linecap="round" stroke-linejoin="round"/>
<path id="Vector_2" d="M13 2.05078C13 2.05078 16 6.00078 16 12.0008C16 18.0008 13 21.9508 13 21.9508M11 21.9508C11 21.9508 8 18.0008 8 12.0008C8 6.00078 11 2.05078 11 2.05078M2.63 15.5008H21.37M2.63 8.50078H21.37" stroke="#232323" stroke-width="1.5" stroke-linecap="round" stroke-linejoin="round"/>
</g>
</g>
</svg>
