<svg width="31" height="24" viewBox="0 0 31 24" fill="none" xmlns="http://www.w3.org/2000/svg">
<g id="logos:mastercard" clip-path="url(#clip0_3689_9907)">
<path id="Vector" d="M5.61283 23.8816V22.2932C5.61283 21.6841 5.24209 21.2871 4.60663 21.2871C4.28897 21.2871 3.94477 21.393 3.70645 21.7372C3.52121 21.4459 3.25648 21.2871 2.85934 21.2871C2.59449 21.2871 2.32989 21.3665 2.11799 21.6577V21.3401H1.56201V23.8816H2.11799V22.4784C2.11799 22.0285 2.3563 21.8166 2.72704 21.8166C3.09753 21.8166 3.28302 22.0549 3.28302 22.4784V23.8816H3.839V22.4784C3.839 22.0285 4.1036 21.8166 4.4478 21.8166C4.81853 21.8166 5.00378 22.0549 5.00378 22.4784V23.8816H5.61283ZM13.8465 21.3401H12.9465V20.5723H12.3905V21.3401H11.8874V21.843H12.3904V23.008C12.3904 23.5905 12.6287 23.9346 13.2641 23.9346C13.5024 23.9346 13.767 23.8552 13.9525 23.7493L13.7936 23.2727C13.6347 23.3786 13.4495 23.4051 13.3171 23.4051C13.0523 23.4051 12.9465 23.2463 12.9465 22.9815V21.843H13.8465V21.3401ZM18.5592 21.287C18.2415 21.287 18.0298 21.4459 17.8973 21.6577V21.3401H17.3413V23.8816H17.8973V22.452C17.8973 22.0285 18.0826 21.7901 18.4268 21.7901C18.5327 21.7901 18.6651 21.8167 18.771 21.8431L18.9298 21.3136C18.8239 21.2871 18.6651 21.2871 18.5592 21.2871V21.287ZM11.4373 21.5518C11.1725 21.3665 10.8019 21.2871 10.4047 21.2871C9.76941 21.2871 9.34585 21.6048 9.34585 22.1078C9.34585 22.5315 9.66352 22.7697 10.2195 22.8492L10.4842 22.8757C10.7755 22.9285 10.9343 23.008 10.9343 23.1404C10.9343 23.3257 10.7225 23.4581 10.3518 23.4581C9.98119 23.4581 9.68993 23.3257 9.50456 23.1934L9.23984 23.6169C9.5311 23.8287 9.92824 23.9346 10.3253 23.9346C11.0666 23.9346 11.4903 23.5905 11.4903 23.1139C11.4903 22.6638 11.1461 22.4255 10.6165 22.3461L10.3518 22.3196C10.1135 22.2931 9.92824 22.2402 9.92824 22.0814C9.92824 21.896 10.1135 21.7901 10.4047 21.7901C10.7225 21.7901 11.0402 21.9224 11.199 22.0019L11.4373 21.5518ZM26.2106 21.2871C25.8928 21.2871 25.681 21.4459 25.5486 21.6577V21.3401H24.9926V23.8816H25.5486V22.452C25.5486 22.0285 25.734 21.7901 26.0781 21.7901C26.1841 21.7901 26.3165 21.8167 26.4224 21.8431L26.5812 21.3136C26.4753 21.2871 26.3165 21.2871 26.2106 21.2871ZM19.1152 22.6108C19.1152 23.3786 19.6446 23.9346 20.4654 23.9346C20.8361 23.9346 21.1008 23.8552 21.3655 23.6435L21.1008 23.1934C20.889 23.3522 20.6772 23.4316 20.4389 23.4316C19.9888 23.4316 19.6712 23.1139 19.6712 22.6108C19.6712 22.1343 19.9888 21.8166 20.4389 21.7901C20.6772 21.7901 20.889 21.8695 21.1008 22.0285L21.3655 21.5784C21.1008 21.3665 20.8361 21.2871 20.4654 21.2871C19.6446 21.2871 19.1152 21.8431 19.1152 22.6108ZM24.2514 22.6108V21.3401H23.6954V21.6577C23.5101 21.4195 23.2453 21.2871 22.9011 21.2871C22.1863 21.2871 21.6304 21.8431 21.6304 22.6108C21.6304 23.3786 22.1863 23.9346 22.9011 23.9346C23.2718 23.9346 23.5366 23.8023 23.6954 23.564V23.8816H24.2514V22.6108ZM22.2127 22.6108C22.2127 22.1608 22.504 21.7901 22.9805 21.7901C23.4306 21.7901 23.7484 22.1343 23.7484 22.6108C23.7484 23.0609 23.4306 23.4316 22.9805 23.4316C22.504 23.405 22.2127 23.0609 22.2127 22.6108ZM15.5675 21.2871C14.8262 21.2871 14.2966 21.8166 14.2966 22.6108C14.2966 23.4051 14.8261 23.9346 15.5939 23.9346C15.9645 23.9346 16.3353 23.8287 16.6265 23.5905L16.3617 23.1934C16.1499 23.3522 15.8852 23.4581 15.6205 23.4581C15.2763 23.4581 14.9321 23.2993 14.8526 22.849H16.7324V22.6374C16.759 21.8166 16.2825 21.2871 15.5675 21.2871ZM15.5675 21.7636C15.9116 21.7636 16.15 21.9755 16.2029 22.3727H14.8791C14.9321 22.0285 15.1704 21.7636 15.5675 21.7636ZM29.3611 22.6108V20.334H28.8051V21.6577C28.6198 21.4195 28.3551 21.2871 28.0109 21.2871C27.296 21.2871 26.7401 21.8431 26.7401 22.6108C26.7401 23.3786 27.296 23.9346 28.0109 23.9346C28.3816 23.9346 28.6463 23.8023 28.8051 23.564V23.8816H29.3611V22.6108ZM27.3226 22.6108C27.3226 22.1608 27.6137 21.7901 28.0903 21.7901C28.5404 21.7901 28.8581 22.1343 28.8581 22.6108C28.8581 23.0609 28.5404 23.4316 28.0903 23.4316C27.6137 23.405 27.3226 23.0609 27.3226 22.6108ZM8.73681 22.6108V21.3401H8.18083V21.6577C7.99546 21.4195 7.73074 21.2871 7.38653 21.2871C6.67172 21.2871 6.11574 21.8431 6.11574 22.6108C6.11574 23.3786 6.67172 23.9346 7.38653 23.9346C7.75727 23.9346 8.02199 23.8023 8.18083 23.564V23.8816H8.73681V22.6108ZM6.67172 22.6108C6.67172 22.1608 6.96298 21.7901 7.43948 21.7901C7.88957 21.7901 8.20736 22.1343 8.20736 22.6108C8.20736 23.0609 7.88957 23.4316 7.43948 23.4316C6.96298 23.405 6.67172 23.0609 6.67172 22.6108Z" fill="black"/>
<path id="Vector_2" d="M11.252 2.03906H19.5917V17.0241H11.252V2.03906Z" fill="#FF5F00"/>
<path id="Vector_3" d="M11.7816 9.53114C11.7816 6.48651 13.2112 3.78597 15.4086 2.03855C13.7937 0.767759 11.7552 0 9.53126 0C4.26247 0 0 4.26247 0 9.53114C0 14.7997 4.26247 19.0623 9.53114 19.0623C11.7551 19.0623 13.7936 18.2945 15.4086 17.0236C13.2112 15.3027 11.7816 12.5758 11.7816 9.53114Z" fill="#EB001B"/>
<path id="Vector_4" d="M30.8437 9.53114C30.8437 14.7997 26.5812 19.0623 21.3125 19.0623C19.0886 19.0623 17.0501 18.2945 15.4351 17.0236C17.659 15.2763 19.0622 12.5758 19.0622 9.53114C19.0622 6.48651 17.6324 3.78597 15.4351 2.03855C17.0499 0.767759 19.0886 0 21.3125 0C26.5812 0 30.8437 4.28901 30.8437 9.53114Z" fill="#F79E1B"/>
</g>
<defs>
<clipPath id="clip0_3689_9907">
<rect width="30.8744" height="24" fill="white"/>
</clipPath>
</defs>
</svg>
