<svg width="56" height="56" viewBox="0 0 56 56" fill="none" xmlns="http://www.w3.org/2000/svg">
<g id="logos:whatsapp-icon" clip-path="url(#clip0_2724_4244)">
<path id="Vector" d="M1.40252 27.6653C1.40122 32.3704 2.63061 36.9646 4.96829 41.014L1.17896 54.8494L15.3378 51.1369C19.254 53.2689 23.6418 54.386 28.1006 54.3862H28.1124C42.8319 54.3862 54.8139 42.4085 54.8202 27.6864C54.823 20.5525 52.0474 13.8442 47.0043 8.79725C41.9622 3.75073 35.2563 0.970053 28.1113 0.966797C13.39 0.966797 1.40882 12.9439 1.40274 27.6653" fill="url(#paint0_linear_2724_4244)"/>
<path id="Vector_2" d="M0.449289 27.6562C0.44777 32.5306 1.72123 37.2891 4.14225 41.4834L0.217041 55.8149L14.8836 51.9693C18.9247 54.1726 23.4746 55.3343 28.1044 55.336H28.1163C43.364 55.336 55.7764 42.9275 55.7829 27.6783C55.7855 20.2881 52.91 13.3386 47.6868 8.11088C42.463 2.88378 35.5172 0.00303876 28.1163 0C12.8661 0 0.455367 12.4068 0.449289 27.6562ZM9.18355 40.7611L8.63592 39.8918C6.33385 36.2313 5.11878 32.0014 5.12051 27.6579C5.12551 14.983 15.4408 4.67101 28.125 4.67101C34.2676 4.67361 40.0404 7.06816 44.3824 11.4127C48.7241 15.7577 51.1132 21.5335 51.1117 27.6766C51.1061 40.3515 40.7906 50.6648 28.1163 50.6648H28.1072C23.9804 50.6626 19.9329 49.5544 16.4032 47.46L15.5632 46.9619L6.85977 49.2438L9.18355 40.7608V40.7611Z" fill="url(#paint1_linear_2724_4244)"/>
<path id="Vector_3" d="M21.2011 16.0943C20.6832 14.9433 20.1382 14.9201 19.6457 14.8999C19.2424 14.8825 18.7814 14.8838 18.3208 14.8838C17.8598 14.8838 17.1107 15.0572 16.4776 15.7486C15.8438 16.4405 14.0579 18.1127 14.0579 21.5137C14.0579 24.915 16.5351 28.2018 16.8804 28.6635C17.2262 29.1243 21.6628 36.327 28.6893 39.0979C34.5289 41.4007 35.7173 40.9427 36.9847 40.8272C38.2522 40.7122 41.0748 39.1555 41.6507 37.5412C42.2269 35.9272 42.2269 34.5437 42.0542 34.2546C41.8814 33.9666 41.4204 33.7936 40.7291 33.448C40.0375 33.1023 36.6389 31.4299 36.0053 31.1991C35.3715 30.9686 34.9107 30.8536 34.4497 31.5458C33.9887 32.2369 32.6648 33.7936 32.2613 34.2546C31.8583 34.7167 31.4548 34.7742 30.7637 34.4285C30.0719 34.0816 27.8456 33.3525 25.2042 30.9977C23.1492 29.1653 21.7618 26.9025 21.3585 26.2104C20.9552 25.5193 21.3153 25.1446 21.6619 24.8002C21.9725 24.4904 22.3535 23.9929 22.6994 23.5894C23.0441 23.1857 23.1592 22.8977 23.3897 22.4366C23.6204 21.9752 23.5049 21.5715 23.3324 21.2257C23.1592 20.8799 21.8158 17.4611 21.2011 16.0943Z" fill="white"/>
</g>
<defs>
<linearGradient id="paint0_linear_2724_4244" x1="2683.24" y1="5389.23" x2="2683.24" y2="0.966797" gradientUnits="userSpaceOnUse">
<stop stop-color="#1FAF38"/>
<stop offset="1" stop-color="#60D669"/>
</linearGradient>
<linearGradient id="paint1_linear_2724_4244" x1="2778.51" y1="5581.49" x2="2778.51" y2="0" gradientUnits="userSpaceOnUse">
<stop stop-color="#F9F9F9"/>
<stop offset="1" stop-color="white"/>
</linearGradient>
<clipPath id="clip0_2724_4244">
<rect width="55.5659" height="56" fill="white" transform="translate(0.217041)"/>
</clipPath>
</defs>
</svg>
