<svg width="24" height="24" viewBox="0 0 24 24" fill="none" xmlns="http://www.w3.org/2000/svg">
<g id="lucide:thumbs-down">
<path id="Vector" d="M15.9657 13.8V3M9.51084 17.508L10.3177 13.8H5.61372C5.3632 13.8 5.11611 13.7349 4.89204 13.61C4.66797 13.485 4.47306 13.3036 4.32274 13.08C4.17243 12.8564 4.07084 12.5969 4.02603 12.322C3.98121 12.0471 3.9944 11.7643 4.06455 11.496L5.94453 4.296C6.04229 3.92211 6.24614 3.59368 6.52547 3.36C6.80479 3.12632 7.14454 3 7.4937 3H18.3863C18.8143 3 19.2247 3.18964 19.5274 3.52721C19.83 3.86477 20 4.32261 20 4.8V12C20 12.4774 19.83 12.9352 19.5274 13.2728C19.2247 13.6104 18.8143 13.8 18.3863 13.8H16.1594C15.8591 13.8002 15.5649 13.8938 15.3098 14.0703C15.0546 14.2467 14.8487 14.4991 14.7151 14.799L11.9314 21C11.5509 20.9947 11.1764 20.8936 10.8359 20.7043C10.4953 20.5149 10.1975 20.2421 9.96478 19.9063C9.73202 19.5705 9.57029 19.1804 9.49169 18.7651C9.41309 18.3498 9.41963 17.9201 9.51084 17.508Z" stroke="black" stroke-width="1.5" stroke-linecap="round" stroke-linejoin="round"/>
</g>
</svg>
