<svg width="24" height="24" viewBox="0 0 24 24" fill="none" xmlns="http://www.w3.org/2000/svg">
<g id="vuesax/outline/magicpen">
<g id="magicpen">
<path id="Vector" d="M5 21.3709C4.38737 21.3709 3.78614 21.1399 3.32355 20.6773C2.87718 20.2309 2.63 19.638 2.63 19.0009C2.63 18.3637 2.87718 17.7708 3.32355 17.3244L16.3236 4.32441C17.2483 3.39968 18.7517 3.39967 19.6764 4.32441C20.1228 4.77079 20.37 5.36367 20.37 6.00086C20.37 6.63805 20.1228 7.23093 19.6764 7.67731L6.67645 20.6773C6.21386 21.1399 5.61264 21.3709 5 21.3709ZM16.6764 4.67731L17.03 5.03086L16.6764 4.67731L3.67645 17.6773C3.32181 18.0319 3.13 18.4995 3.13 19.0009C3.13 19.5022 3.32181 19.9698 3.67645 20.3244C4.40171 21.0497 5.59829 21.0497 6.32355 20.3244L19.3236 7.32441C19.6782 6.96978 19.87 6.50223 19.87 6.00086C19.87 5.49948 19.6782 5.03194 19.3236 4.67731C18.9543 4.30806 18.4746 4.13086 18 4.13086C17.5254 4.13086 17.0457 4.30806 16.6764 4.67731Z" fill="#232323" stroke="#232323"/>
<path id="Vector_2" d="M18.01 9.23969C17.9455 9.23969 17.8848 9.21742 17.8336 9.16613L14.8336 6.16613C14.7388 6.0714 14.7388 5.90798 14.8336 5.81324C14.9283 5.7185 15.0917 5.7185 15.1864 5.81324L18.1864 8.81324C18.2812 8.90798 18.2812 9.0714 18.1864 9.16613C18.1352 9.21742 18.0746 9.23969 18.01 9.23969Z" fill="#232323" stroke="#232323"/>
<path id="Vector_3" d="M8.81046 4.64921L9.12059 4.73925L9.99364 4.99271L9.74017 4.11967L9.65014 3.80955L9.99829 4.99327L9.99499 4.99633L9.98068 4.99339L8.81046 4.64921ZM7.87941 4.73925L8.18953 4.64921L7.00549 4.99746L7.00355 4.99552C7.00279 4.99476 7.00216 4.99408 7.00164 4.99349L7.34986 3.80955L7.25983 4.11967L7.00636 4.99271L7.87941 4.73925ZM7.25983 2.87848L7.34986 3.18858L7.00162 2.00457L7.00355 2.00263C7.00433 2.00186 7.00515 2.00126 7.00591 2.00081L8.18957 2.34895L7.8794 2.2589L7.00636 2.00544L7.25983 2.87848ZM8.81042 2.34895L9.99442 2.00072C9.99501 2.00124 9.99569 2.00187 9.99645 2.00263C9.99722 2.0034 9.99782 2.00422 9.99826 2.00498L9.65014 3.18858L9.74017 2.87848L9.99364 2.00544L9.12059 2.2589L8.81042 2.34895Z" fill="#232323" stroke="#232323"/>
<path id="Vector_4" d="M6 11.4991C5.95 11.4991 5.91 11.4891 5.86 11.4791L4.5 11.0791L3.14 11.4791C2.96 11.5291 2.78 11.4791 2.65 11.3491C2.52 11.2191 2.47 11.0291 2.52 10.8591L2.92 9.49907L2.52 8.13908C2.47 7.95908 2.52 7.76907 2.65 7.64907C2.78 7.52907 2.97 7.46907 3.14 7.51907L4.5 7.91907L5.86 7.51907C6.03 7.46907 6.22 7.51907 6.35 7.64907C6.48 7.77907 6.53 7.96908 6.48 8.13908L6.08 9.49907L6.48 10.8591C6.53 11.0391 6.48 11.2291 6.35 11.3491C6.26 11.4491 6.13 11.4991 6 11.4991ZM4.5 10.0591C4.55 10.0591 4.59 10.0691 4.64 10.0791L5.26 10.2591L5.08 9.63908C5.05 9.54908 5.05 9.44907 5.08 9.35907L5.26 8.73907L4.64 8.91907C4.55 8.94907 4.45 8.94907 4.36 8.91907L3.74 8.73907L3.92 9.35907C3.95 9.44907 3.95 9.54908 3.92 9.63908L3.74 10.2591L4.36 10.0791C4.41 10.0691 4.45 10.0591 4.5 10.0591Z" fill="#232323"/>
<path id="Vector_5" d="M21 16.4991C20.95 16.4991 20.91 16.4891 20.86 16.4791L19.5 16.0791L18.14 16.4791C17.96 16.5291 17.78 16.4791 17.65 16.3491C17.52 16.2191 17.47 16.0291 17.52 15.8591L17.92 14.4991L17.52 13.1391C17.47 12.9591 17.52 12.7691 17.65 12.6491C17.78 12.5291 17.97 12.4691 18.14 12.5191L19.5 12.9191L20.86 12.5191C21.03 12.4691 21.22 12.5191 21.35 12.6491C21.48 12.7791 21.53 12.9691 21.48 13.1391L21.08 14.4991L21.48 15.8591C21.53 16.0391 21.48 16.2291 21.35 16.3491C21.26 16.4491 21.13 16.4991 21 16.4991ZM19.5 15.0591C19.55 15.0591 19.59 15.0691 19.64 15.0791L20.26 15.2591L20.08 14.6391C20.05 14.5491 20.05 14.4491 20.08 14.3591L20.26 13.7391L19.64 13.9191C19.55 13.9491 19.45 13.9491 19.36 13.9191L18.74 13.7391L18.92 14.3591C18.95 14.4491 18.95 14.5491 18.92 14.6391L18.74 15.2591L19.36 15.0791C19.41 15.0691 19.45 15.0591 19.5 15.0591Z" fill="#232323"/>
</g>
</g>
</svg>
