<svg width="24" height="24" viewBox="0 0 24 24" fill="none" xmlns="http://www.w3.org/2000/svg">
<g id="material-symbols-light:privacy-tip-outline-rounded">
<path id="Vector" d="M11.9302 16.7751C12.0911 16.7751 12.2259 16.7211 12.3347 16.6131C12.4427 16.5044 12.4967 16.3699 12.4967 16.2098V10.9374C12.4967 10.7765 12.4423 10.642 12.3335 10.534C12.2248 10.4253 12.09 10.3709 11.9291 10.3709C11.7682 10.3709 11.6338 10.4253 11.5258 10.534C11.4178 10.642 11.3638 10.7765 11.3638 10.9374V16.2098C11.3638 16.3699 11.4181 16.5044 11.5269 16.6131C11.6357 16.7219 11.7705 16.7763 11.9313 16.7763L11.9302 16.7751ZM11.9302 8.58434C12.1281 8.58434 12.2935 8.5175 12.4264 8.38382C12.5601 8.25014 12.6269 8.08474 12.6269 7.88762C12.6269 7.68974 12.5601 7.52396 12.4264 7.39028C12.2935 7.2566 12.1281 7.18976 11.9302 7.18976C11.7323 7.18976 11.5669 7.2566 11.434 7.39028C11.3003 7.52396 11.2335 7.68974 11.2335 7.88762C11.2335 8.08474 11.3003 8.25014 11.434 8.38382C11.5669 8.5175 11.7323 8.58434 11.9302 8.58434ZM11.9302 22C11.8267 22 11.7184 21.9906 11.6051 21.9717C11.4918 21.9528 11.386 21.9245 11.2879 21.8867C9.05759 21.037 7.28537 19.596 5.97122 17.5636C4.65707 15.5312 4 13.3311 4 10.9634V6.11125C4 5.72305 4.11065 5.37336 4.33194 5.0622C4.55323 4.75103 4.83909 4.52558 5.18953 4.38586L11.2901 2.12009C11.5107 2.04003 11.724 2 11.9302 2C12.1364 2 12.3498 2.04003 12.5703 2.12009L18.6709 4.38586C19.0213 4.52558 19.3072 4.75103 19.5285 5.0622C19.7498 5.37336 19.8604 5.72305 19.8604 6.11125V10.9634C19.8604 13.3311 19.2034 15.5312 17.8892 17.5636C16.5751 19.596 14.8032 21.037 12.5737 21.8867C12.4748 21.9245 12.3686 21.9528 12.2554 21.9717C12.1421 21.9906 12.0337 22 11.9302 22ZM11.9302 20.9328C13.8939 20.3097 15.5177 19.0636 16.8016 17.1943C18.0856 15.325 18.7275 13.2481 18.7275 10.9634V6.08972C18.7275 5.94472 18.6875 5.81406 18.6075 5.69775C18.5274 5.58144 18.4149 5.49458 18.2699 5.43718L12.1704 3.17141C12.0971 3.1412 12.0171 3.12609 11.9302 3.12609C11.8434 3.12609 11.7633 3.1412 11.69 3.17141L5.59057 5.43718C5.44556 5.49458 5.33303 5.58144 5.25297 5.69775C5.17292 5.81406 5.13289 5.94472 5.13289 6.08972V10.9634C5.13289 13.2481 5.77486 15.325 7.0588 17.1943C8.34274 19.0636 9.96654 20.3097 11.9302 20.9328Z" fill="#232323"/>
</g>
</svg>
