<svg width="24" height="24" viewBox="0 0 24 24" fill="none" xmlns="http://www.w3.org/2000/svg">
<g id="ph:flag">
<path id="Vector" d="M4.22996 4.61926C4.15825 4.6864 4.10064 4.76931 4.06099 4.86244C4.02133 4.95557 4.00054 5.05677 4 5.15928V20.28C4 20.4709 4.07023 20.6541 4.19523 20.7891C4.32024 20.9241 4.48978 21 4.66656 21C4.84335 21 5.01289 20.9241 5.13789 20.7891C5.2629 20.6541 5.33312 20.4709 5.33312 20.28V16.2991C7.56528 14.3946 9.48831 15.4215 11.703 16.606C13.0694 17.3359 14.5409 18.1226 16.1189 18.1226C17.2796 18.1226 18.4969 17.6951 19.77 16.5025C19.8417 16.4354 19.8994 16.3524 19.939 16.2593C19.9787 16.1662 19.9995 16.065 20 15.9625V5.15928C19.9997 5.02108 19.9626 4.88589 19.8931 4.76985C19.8236 4.65381 19.7246 4.56184 19.6081 4.5049C19.4915 4.44796 19.3622 4.42846 19.2356 4.44874C19.1091 4.46902 18.9906 4.52822 18.8943 4.61926C16.5614 6.80006 14.585 5.74341 12.2945 4.51845C9.92158 3.2476 7.23116 1.81023 4.22996 4.61926ZM18.6644 15.6223C16.4322 17.5267 14.5092 16.4989 12.2945 15.3153C10.2115 14.2038 7.89439 12.9635 5.33312 14.5593V5.5004C7.56528 3.59591 9.48831 4.62286 11.703 5.80641C13.786 6.91796 16.1039 8.15822 18.6644 6.56245V15.6223Z" fill="#8D8D8D"/>
</g>
</svg>
