<svg width="56" height="56" viewBox="0 0 56 56" fill="none" xmlns="http://www.w3.org/2000/svg">
<g id="skill-icons:instagram">
<g clip-path="url(#clip0_2724_4250)">
<g id="Group">
<path id="Vector" d="M42.874 0H13.124C5.87529 0 -0.000976562 5.87626 -0.000976562 13.125V42.875C-0.000976562 50.1237 5.87529 56 13.124 56H42.874C50.1228 56 55.999 50.1237 55.999 42.875V13.125C55.999 5.87626 50.1228 0 42.874 0Z" fill="url(#paint0_radial_2724_4250)"/>
<path id="Vector_2" d="M42.874 0H13.124C5.87529 0 -0.000976562 5.87626 -0.000976562 13.125V42.875C-0.000976562 50.1237 5.87529 56 13.124 56H42.874C50.1228 56 55.999 50.1237 55.999 42.875V13.125C55.999 5.87626 50.1228 0 42.874 0Z" fill="url(#paint1_radial_2724_4250)"/>
<path id="Vector_3" d="M28.4396 10C23.4323 10 22.8037 10.0219 20.8371 10.1114C18.8742 10.2013 17.5343 10.512 16.362 10.968C15.1492 11.4389 14.1205 12.0689 13.0957 13.0941C12.07 14.119 11.44 15.1477 10.9676 16.36C10.5104 17.5327 10.1993 18.8731 10.111 20.8351C10.023 22.8019 10 23.4306 10 28.4382C10 33.4457 10.0221 34.0723 10.1114 36.0389C10.2017 38.0018 10.5124 39.3417 10.968 40.5139C11.4393 41.7268 12.0693 42.7555 13.0944 43.7802C14.119 44.8059 15.1477 45.4374 16.3596 45.9084C17.5328 46.3643 18.8729 46.675 20.8355 46.765C22.8022 46.8544 23.4302 46.8763 28.4374 46.8763C33.4454 46.8763 34.0719 46.8544 36.0385 46.765C38.0014 46.675 39.3428 46.3643 40.516 45.9084C41.7283 45.4374 42.7555 44.8059 43.7799 43.7802C44.8056 42.7555 45.4354 41.7268 45.908 40.5145C46.3612 39.3417 46.6724 38.0014 46.7646 36.0392C46.8529 34.0726 46.876 33.4457 46.876 28.4382C46.876 23.4306 46.8529 22.8022 46.7646 20.8355C46.6724 18.8725 46.3612 17.5328 45.908 16.3606C45.4354 15.1477 44.8056 14.119 43.7799 13.0941C42.7543 12.0686 41.7286 11.4385 40.5149 10.9682C39.3394 10.512 37.9988 10.2012 36.0359 10.1114C34.0691 10.0219 33.443 10 28.4339 10H28.4396ZM26.7856 13.3227C27.2766 13.322 27.8244 13.3227 28.4396 13.3227C33.3628 13.3227 33.9462 13.3404 35.8903 13.4287C37.688 13.511 38.6637 13.8113 39.3136 14.0637C40.1741 14.3978 40.7876 14.7974 41.4325 15.4429C42.0779 16.0882 42.4772 16.7028 42.8122 17.5633C43.0647 18.2123 43.3654 19.188 43.4472 20.9857C43.5356 22.9295 43.5547 23.5132 43.5547 28.4339C43.5547 33.3547 43.5356 33.9386 43.4472 35.8821C43.365 37.6798 43.0647 38.6556 42.8122 39.3048C42.4781 40.1653 42.0779 40.778 41.4325 41.4229C40.7872 42.0683 40.1745 42.4676 39.3136 42.8019C38.6644 43.0554 37.688 43.3551 35.8903 43.4373C33.9465 43.5256 33.3628 43.5448 28.4396 43.5448C23.5163 43.5448 22.9328 43.5256 20.9892 43.4373C19.1915 43.3543 18.2158 43.054 17.5653 42.8016C16.705 42.4673 16.0903 42.0679 15.4449 41.4226C14.7996 40.7772 14.4002 40.1642 14.0652 39.3033C13.8128 38.6541 13.5121 37.6784 13.4302 35.8807C13.3419 33.9369 13.3242 33.3532 13.3242 28.4293C13.3242 23.5056 13.3419 22.9248 13.4302 20.9811C13.5124 19.1834 13.8128 18.2077 14.0652 17.5577C14.3995 16.6972 14.7996 16.0827 15.4451 15.4374C16.0904 14.792 16.705 14.3925 17.5655 14.0576C18.2154 13.8041 19.1915 13.5045 20.9892 13.4219C22.6901 13.345 23.3493 13.322 26.7856 13.3181V13.3227ZM38.2818 16.3842C37.0603 16.3842 36.0693 17.3743 36.0693 18.596C36.0693 19.8175 37.0603 20.8085 38.2818 20.8085C39.5034 20.8085 40.4944 19.8175 40.4944 18.596C40.4944 17.3745 39.5034 16.3834 38.2818 16.3834V16.3842ZM28.4396 18.9693C23.2106 18.9693 18.971 23.209 18.971 28.4382C18.971 33.6674 23.2106 37.905 28.4396 37.905C33.6688 37.905 37.907 33.6674 37.907 28.4382C37.907 23.2092 33.6685 18.9693 28.4393 18.9693H28.4396ZM28.4396 22.2921C31.8339 22.2921 34.5858 25.0436 34.5858 28.4382C34.5858 31.8324 31.8339 34.5843 28.4396 34.5843C25.0452 34.5843 22.2937 31.8324 22.2937 28.4382C22.2937 25.0436 25.0452 22.2921 28.4396 22.2921Z" fill="white"/>
</g>
</g>
</g>
<defs>
<radialGradient id="paint0_radial_2724_4250" cx="0" cy="0" r="1" gradientUnits="userSpaceOnUse" gradientTransform="translate(14.874 60.3131) rotate(-90) scale(55.5002 51.6195)">
<stop stop-color="#FFDD55"/>
<stop offset="0.1" stop-color="#FFDD55"/>
<stop offset="0.5" stop-color="#FF543E"/>
<stop offset="1" stop-color="#C837AB"/>
</radialGradient>
<radialGradient id="paint1_radial_2724_4250" cx="0" cy="0" r="1" gradientUnits="userSpaceOnUse" gradientTransform="translate(-9.3812 4.03397) rotate(78.681) scale(24.8089 102.263)">
<stop stop-color="#3771C8"/>
<stop offset="0.128" stop-color="#3771C8"/>
<stop offset="1" stop-color="#6600FF" stop-opacity="0"/>
</radialGradient>
<clipPath id="clip0_2724_4250">
<rect width="56" height="56" rx="28" fill="white"/>
</clipPath>
</defs>
</svg>
