<svg width="24" height="24" viewBox="0 0 24 24" fill="none" xmlns="http://www.w3.org/2000/svg">
<g id="solar:star-line-duotone">
<path id="Vector" d="M9.43799 6.06721C10.5783 4.0224 11.148 3 12.0003 3C12.8526 3 13.4223 4.0224 14.5626 6.06721L14.8578 6.59641C15.1818 7.17781 15.3438 7.46851 15.5958 7.66021C15.8478 7.85191 16.1628 7.92301 16.7928 8.06522L17.3652 8.19482C19.5792 8.69612 20.6853 8.94632 20.949 9.79322C21.2118 10.6392 20.4576 11.5221 18.9483 13.287L18.5577 13.7433C18.1293 14.2446 17.9142 14.4957 17.8179 14.8053C17.7216 15.1158 17.754 15.4506 17.8188 16.1193L17.8782 16.7286C18.1059 19.0839 18.2202 20.2612 17.5308 20.7841C16.8414 21.3079 15.8046 20.83 13.7328 19.876L13.1955 19.6294C12.6069 19.3575 12.3126 19.2225 12.0003 19.2225C11.688 19.2225 11.3937 19.3575 10.8042 19.6294L10.2687 19.876C8.19599 20.83 7.15919 21.307 6.47068 20.785C5.78038 20.2612 5.89468 19.0839 6.12238 16.7286L6.18178 16.1202C6.24658 15.4506 6.27898 15.1158 6.18178 14.8062C6.08638 14.4957 5.87128 14.2446 5.44288 13.7442L5.05228 13.287C3.54297 11.523 2.78877 10.6401 3.05157 9.79322C3.31527 8.94632 4.42228 8.69522 6.63628 8.19482L7.20869 8.06522C7.83779 7.92301 8.15189 7.85191 8.40479 7.66021C8.65679 7.46851 8.81879 7.17781 9.14279 6.59641L9.43799 6.06721Z" stroke="#8D8D8D" stroke-width="1.5"/>
</g>
</svg>
