<svg width="24" height="24" viewBox="0 0 24 24" fill="none" xmlns="http://www.w3.org/2000/svg">
<g id="vuesax/outline/verify">
<g id="verify">
<path id="Vector" d="M10.4364 13.7128L10.79 14.0664L11.1436 13.7128L15.4436 9.41285C15.5383 9.31811 15.7017 9.31811 15.7964 9.41285C15.8912 9.50759 15.8912 9.67101 15.7964 9.76574L10.9664 14.5957C10.9191 14.643 10.8559 14.6693 10.79 14.6693C10.7241 14.6693 10.6609 14.643 10.6136 14.5957L8.19355 12.1757C8.09882 12.081 8.09882 11.9176 8.19355 11.8228C8.28829 11.7281 8.45171 11.7281 8.54645 11.8228L8.9 11.4693L8.54645 11.8229L10.4364 13.7128Z" fill="#232323" stroke="#232323"/>
<path id="Vector_2" d="M8.9953 3.62806L9.0008 3.62358L9.00618 3.61895L10.5854 2.25963C10.5855 2.25952 10.5857 2.2594 10.5858 2.25929C11.3784 1.58024 12.6316 1.58024 13.4242 2.25929C13.4243 2.2594 13.4245 2.25952 13.4246 2.25963L15.0026 3.61793C15.153 3.74875 15.3618 3.84367 15.5273 3.9031C15.6959 3.9636 15.9112 4.02 16.1 4.02H17.8C19.0039 4.02 19.98 4.99614 19.98 6.2V7.9C19.98 8.09419 20.0418 8.31308 20.1045 8.47975C20.167 8.64602 20.2644 8.85076 20.3922 8.99753C20.3927 8.9981 20.3932 8.99868 20.3937 8.99925L21.7504 10.5754C21.7504 10.5755 21.7505 10.5755 21.7505 10.5756C22.4298 11.3683 22.4298 12.6217 21.7505 13.4144C21.7505 13.4145 21.7504 13.4145 21.7504 13.4146L20.3937 14.9907C20.3932 14.9914 20.3927 14.992 20.3921 14.9926C20.2644 15.1393 20.167 15.344 20.1045 15.5102C20.0418 15.6769 19.98 15.8958 19.98 16.09V17.79C19.98 18.9939 19.0039 19.97 17.8 19.97H16.1C15.9064 19.97 15.6879 20.0316 15.5238 20.0919C15.358 20.1529 15.1578 20.2457 15.0147 20.3619L15.0092 20.3664L15.0038 20.371L13.4238 21.7311L13.4238 21.731L13.4202 21.7342C13.0304 22.0763 12.5211 22.25 12 22.25C11.4785 22.25 10.967 22.0759 10.5756 21.7405C10.5755 21.7405 10.5755 21.7404 10.5754 21.7404L8.99925 20.3837C8.99866 20.3832 8.99807 20.3827 8.99748 20.3822C8.84713 20.2513 8.63827 20.1563 8.47268 20.0969C8.30414 20.0364 8.08881 19.98 7.9 19.98H6.18C4.97614 19.98 4 19.0039 4 17.8V16.09C4 15.9001 3.94308 15.6865 3.88216 15.5197C3.82216 15.3555 3.72762 15.1523 3.59919 15.0041L2.25184 13.4172C2.25177 13.4171 2.2517 13.417 2.25163 13.417C1.58946 12.6334 1.58946 11.3766 2.25163 10.593C2.2517 10.593 2.25177 10.5929 2.25184 10.5928L3.59921 9.0059C3.72763 8.85771 3.82217 8.65454 3.88216 8.49028C3.94308 8.32346 4 8.10986 4 7.92V6.2C4 4.99614 4.97614 4.02 6.18 4.02H7.91C8.10359 4.02 8.32208 3.95839 8.48623 3.89806C8.65204 3.83712 8.85218 3.74434 8.9953 3.62806ZM3.98099 9.31388L3.98099 9.31387L3.97885 9.31639L2.62972 10.9054C2.62961 10.9055 2.62951 10.9056 2.6294 10.9057C2.36403 11.2168 2.2475 11.6184 2.2475 11.995C2.2475 12.3716 2.36402 12.7732 2.62938 13.0842C2.62949 13.0844 2.6296 13.0845 2.62972 13.0846L3.97732 14.6718C3.97755 14.6721 3.97778 14.6723 3.978 14.6726C4.27467 15.0259 4.5 15.6323 4.5 16.08V17.79C4.5 18.7161 5.25386 19.47 6.18 19.47H7.91C8.37068 19.47 8.98451 19.6973 9.33319 19.9984L9.33381 19.999L10.9138 21.359L10.9154 21.3603C11.2276 21.6268 11.6324 21.7425 12.01 21.7425C12.3876 21.7425 12.7924 21.6268 13.1046 21.3603L13.1062 21.3589L14.6838 20.001C15.0391 19.7033 15.655 19.47 16.11 19.47H17.81C18.7361 19.47 19.49 18.7161 19.49 17.79V16.09C19.49 15.6293 19.7173 15.0155 20.0184 14.6668L20.0189 14.6662L21.379 13.0862L21.3803 13.0846C21.6468 12.7724 21.7625 12.3676 21.7625 11.99C21.7625 11.6124 21.6468 11.2076 21.3803 10.8954L21.379 10.8938L20.0189 9.31382L20.0184 9.31319C19.7173 8.96452 19.49 8.35068 19.49 7.89V6.2C19.49 5.27386 18.7361 4.52 17.81 4.52H16.11C15.6493 4.52 15.0355 4.29272 14.6868 3.99159L14.6862 3.99105L13.1062 2.63105L13.1046 2.62972C12.7924 2.36322 12.3876 2.2475 12.01 2.2475C11.6324 2.2475 11.2276 2.36322 10.9154 2.62972L10.9154 2.62971L10.9124 2.63223L9.33552 3.99956C8.9847 4.29306 8.36056 4.52 7.91 4.52H6.18C5.25386 4.52 4.5 5.27386 4.5 6.2V7.91C4.5 8.361 4.27249 8.97512 3.98099 9.31388Z" fill="#232323" stroke="#232323"/>
</g>
</g>
</svg>
