<svg width="24" height="24" viewBox="0 0 24 24" fill="none" xmlns="http://www.w3.org/2000/svg">
<g id="vuesax/linear/volume-slash">
<g id="vuesax/linear/volume-slash_2">
<g id="volume-slash">
<path id="Vector" d="M14.2498 9.27685V8.55685C14.2498 6.32185 12.6973 5.46685 10.8073 6.65185L8.61726 8.02435C8.37726 8.16685 8.09976 8.24935 7.82226 8.24935H6.74976C5.24976 8.24935 4.49976 8.99935 4.49976 10.4994V13.4994C4.49976 14.9994 5.24976 15.7494 6.74976 15.7494H8.24976" stroke="#0B0B0B" stroke-width="1.5" stroke-linecap="round" stroke-linejoin="round"/>
<path id="Vector_2" d="M10.8076 17.3479C12.6976 18.5329 14.2501 17.6704 14.2501 15.4429V12.7129" stroke="#0B0B0B" stroke-width="1.5" stroke-linecap="round" stroke-linejoin="round"/>
<path id="Vector_3" d="M17.1075 10.0645C17.7825 11.677 17.58 13.5595 16.5 14.9995" stroke="#0B0B0B" stroke-width="1.5" stroke-linecap="round" stroke-linejoin="round"/>
<path id="Vector_4" d="M18.863 8.84912C19.9655 11.4666 19.6355 14.5266 17.873 16.8741" stroke="#0B0B0B" stroke-width="1.5" stroke-linecap="round" stroke-linejoin="round"/>
<path id="Vector_5" d="M19.4998 4.49902L4.49976 19.499" stroke="#0B0B0B" stroke-width="1.5" stroke-linecap="round" stroke-linejoin="round"/>
</g>
</g>
</g>
</svg>
